<svg width="930" height="613" viewBox="0 0 930 613" fill="none" xmlns="http://www.w3.org/2000/svg">
<path d="M0.331677 610.001L0 608.344H98.0078C99.7062 605.914 106.76 600.789 121.386 599.729C109.897 599.618 86.079 596.813 82.7222 586.475H104.901C110.596 586.696 125.822 582.3 141.167 562.95C139.469 562.177 136.372 559.902 137.571 556.986C134.873 560.078 126.721 564.408 115.691 556.986C110.796 558.422 99.3266 559.504 92.6129 552.347C103.403 549.807 125.882 543.997 129.478 541.081C119.188 540.419 98.9669 538.033 100.406 533.792H124.683C132.675 533.019 148.78 528.954 149.26 518.882L137.571 519.544C135.373 520.87 129.718 522.261 124.683 517.225C121.286 516.893 116.71 514.972 125.582 509.935L137.571 503.971C138.969 503.198 140.628 501.652 136.072 501.652C131.516 501.652 125.382 497.897 122.884 496.019L131.277 497.013L142.666 495.688C145.863 496.129 152.497 495.754 153.456 490.718C154.555 487.735 155.734 482.434 151.657 485.085C147.581 487.735 146.362 484.422 146.262 482.434C141.267 482.324 134.274 479.651 146.262 469.843L156.453 464.873L161.248 459.903C162.247 458.025 162.687 454.005 156.453 452.945C155.953 452.503 155.254 450.824 156.453 447.643C157.652 444.462 160.949 432.843 162.447 427.431C163.546 423.676 165.205 414.045 163.047 405.563C163.047 397.876 167.243 411.196 169.341 418.816C169.241 420.142 169.7 423.787 172.338 427.763V437.04C174.636 441.348 177.793 451.487 172.038 457.583C170.939 459.903 169.64 464.807 173.237 465.867C176.834 466.927 179.331 472.494 180.131 475.145C181.929 475.807 185.705 477.53 186.425 479.121C187.144 480.711 190.521 478.9 192.119 477.795C193.518 476.801 195.896 475.807 194.217 479.783C192.539 483.759 187.324 488.288 184.926 490.055C183.527 490.276 180.67 491.049 180.43 492.374C180.131 494.031 176.534 494.362 173.837 491.712C171.679 489.591 172.338 491.712 172.937 493.037C174.236 494.031 177.014 497.676 177.733 504.303C178.452 510.929 187.424 511.04 191.82 510.267C197.215 512.144 204.947 517.159 192.719 522.195C184.227 521.532 171.798 522.593 190.021 532.135L196.016 537.105C197.015 537.658 200.272 538.033 205.307 535.117C210.342 532.201 207.805 539.646 205.906 543.732C204.608 545.831 199.552 549.961 189.722 549.696V554.004C189.422 557.096 186.784 562.486 178.632 559.305C170.48 556.124 175.635 562.619 179.231 566.263L183.727 571.565C187.324 572.007 196.795 568.98 205.906 553.341C206.606 552.126 209.203 549.299 213.999 547.708C218.794 546.118 224.189 543.29 226.287 542.076L234.08 541.081C235.079 538.873 240.134 534.388 252.363 534.123L260.455 523.189C261.454 522.085 262.733 519.478 259.856 517.888C258.757 516.783 257.458 513.116 261.055 507.285C256.858 507.726 247.807 508.544 245.169 508.279C242.532 508.014 235.878 506.843 232.881 506.291C237.976 503.309 250.325 497.344 258.956 497.344L232.282 487.735C227.286 484.643 219.574 477.265 228.685 472.494L203.808 457.583L258.657 461.228L291.925 460.565C299.718 459.351 316.802 455.794 322.796 451.288C328.791 446.782 329.89 444.551 329.69 443.998C329.59 443.888 326.573 444.065 315.303 445.655C303.015 448.416 281.975 449.432 296.122 431.407L303.614 424.118C305.613 421.909 308.05 418.154 301.816 420.804L267.948 415.834C260.955 414.951 248.047 411.461 252.363 404.569C252.862 403.685 254.88 401.852 258.956 401.587C263.033 401.322 270.046 401.476 273.043 401.587C276.84 401.145 285.512 399.002 289.827 393.966C291.426 393.193 296.721 391.646 305.113 391.646C308.51 389.216 315.603 384.092 316.802 383.031C318.001 381.971 324.095 382.59 326.992 383.031L330.289 378.062L331.189 376.405C325.794 375.079 313.745 371.236 308.71 366.465C303.674 361.693 295.622 361.826 292.225 362.488C287.929 364.145 279.217 366.067 278.738 360.5C278.258 354.934 281.535 349.345 283.234 347.246C284.532 346.473 287.789 344.795 290.427 344.264L272.144 335.65L256.259 325.378L278.738 328.691H298.819L320.998 325.709C326.693 325.157 337.423 321.402 334.785 310.799V309.142C335.385 306.712 334.665 302.118 326.992 303.178C319.32 304.238 306.811 304.061 301.516 303.84C297.72 301.521 292.525 295.093 302.116 287.936L309.609 283.629C311.008 281.42 316.562 277.598 327.592 279.984C330.589 279.542 336.404 277.2 335.684 271.369C332.787 269.381 327.352 263.483 328.791 255.796C324.495 252.814 317.941 243.735 326.093 231.276C334.246 218.818 336.284 214.378 336.284 213.715V192.178C336.583 190.521 337.603 187.009 339.281 186.214C339.081 183.563 338.801 177.798 339.281 175.942C339.76 174.087 340.48 173.181 340.78 172.96C341.179 172.85 342.038 173.159 342.278 175.28C342.518 177.4 342.778 181.244 342.878 182.901C344.876 185.109 348.632 191.317 347.673 198.474C346.714 205.631 348.472 209.85 349.471 211.065L356.365 223.987C356.764 224.429 357.803 228.294 358.763 240.223C361.76 241.99 366.915 247.976 363.558 257.784C366.056 259.44 371.591 264.146 373.749 269.712L386.337 280.646C389.534 283.076 393.47 289.328 383.639 294.894L374.648 304.834C373.449 306.491 368.653 310.003 359.062 310.798L351.27 319.413C353.568 320.518 361.34 325.576 374.048 336.974C374.748 337.858 377.285 339.691 381.841 339.957C387.036 339.294 396.947 340.884 395.029 352.548C396.527 353.542 399.285 356.325 398.325 359.506C397.127 363.482 386.936 377.729 366.555 378.392C350.251 378.922 361.76 387.228 369.552 391.314C376.346 392.861 390.113 396.483 390.832 398.604C402.122 384.798 425.18 357.186 427.098 357.186C426.899 352.658 427.038 342.607 429.196 338.631C420.804 342.939 403.121 350.096 399.524 344.264C395.928 338.432 402.422 335.207 406.118 334.324C411.813 332.004 422.363 324.98 419.006 315.437L395.029 313.781C389.933 310.798 381.421 303.708 388.135 299.201L409.115 298.207C418.307 296.219 439.806 288.996 452.275 276.008C464.743 263.019 469.858 258.005 470.857 257.121C472.356 254.139 475.053 246.783 473.854 241.217L459.768 252.482C458.069 253.366 454.493 254.073 453.773 249.832C453.054 245.59 446.081 247.402 442.684 248.838C439.087 251.93 431.714 256.723 430.995 251.157C430.275 245.59 433.293 241.99 434.891 240.885L441.485 235.253L431.594 234.921C431.594 233.375 428.537 230.084 416.309 229.288C413.112 228.405 408.816 225.71 417.208 221.999H431.594C440.686 219.79 460.727 213.384 468.16 205.432C475.593 197.48 477.251 191.074 477.151 188.865C476.752 185.772 474.634 181.244 469.359 187.871C469.059 187.871 455.871 196.486 448.378 193.835C451.875 192.399 459.408 188.335 461.566 183.563C461.866 182.79 461.926 181.376 459.768 181.907C457.61 182.437 452.874 179.256 450.776 177.599C448.978 175.059 444.302 171.105 439.986 175.611C435.67 180.117 438.987 172.187 441.185 167.659C442.084 166.554 445.081 164.08 449.877 163.02C454.672 161.96 457.869 158.823 458.868 157.387C459.368 157.277 461.086 156.99 463.964 156.725C467.56 156.393 470.258 156.062 474.454 150.429L477.751 142.477C478.65 140.82 479.069 138.037 473.555 140.157C469.059 139.716 459.947 137.772 459.468 133.531C458.992 129.317 459.264 128.679 459.464 128.888C455.067 124.135 446.58 111.526 447.779 99.0712C450.277 104.925 457.849 115.97 468.16 113.319L478.65 112.656C483.545 111.662 491.538 108.481 484.345 103.71C477.151 98.9386 484.145 82.2832 488.541 74.5519L490.938 52.352L493.935 0C495.034 12.3701 499.81 38.9658 510.12 46.3878C510.42 47.161 510.36 51.7556 507.723 63.9489L507.123 80.516C507.523 84.2712 506.224 94.1673 497.832 103.71C497.732 109.674 499.031 120.343 505.025 115.307C511.019 110.271 514.716 110.779 515.815 111.662C517.713 114.202 522.109 119.018 524.507 117.958C526.305 117.847 530.201 117.03 531.4 114.644C532.599 112.259 533.298 118.51 533.498 121.934C532.399 126.573 527.504 136.645 516.714 139.826C505.924 143.007 506.424 145.569 508.022 146.453C506.624 149.766 508.082 156.327 525.106 156.062C528.503 156.835 534.397 159.044 530.801 161.695H525.106C527.004 165.56 531.82 172.563 535.896 169.647C539.972 166.731 540.592 169.978 540.392 171.966C539.093 178.262 531.34 190.256 510.72 187.871C511.119 190.301 514.676 196.088 525.706 199.799C527.604 200.683 533.199 206.161 540.392 221.005C540.583 221.399 540.766 221.778 540.941 222.141C550.942 224.699 571.115 228.908 576.058 226.306C573.461 229.068 566.587 234.457 559.873 233.927C565.268 236.688 578.216 240.885 586.848 235.584C583.252 240.996 572.821 250.759 559.873 246.518H553.28C550.882 247.954 544.048 249.633 535.896 244.861C527.744 240.09 523.907 240.444 523.008 241.217C526.105 249.169 533.378 264.875 537.694 264.079C542.01 263.284 541.291 272.142 540.392 276.67C541.99 281.088 549.204 288.333 565.268 281.972C565.368 280.315 569.584 279.454 585.649 289.261C590.345 288.819 601.235 289.46 607.229 295.557C613.223 301.653 623.114 294.784 627.31 290.587C625.212 297.434 615.022 311.859 591.044 314.775C594.241 317.315 601.954 322.462 607.229 322.727C606.43 324.273 603.453 328.227 597.938 331.673C591.044 335.98 571.263 337.969 558.675 331.673C566.068 338.521 575.579 351.355 554.479 347.909C533.378 344.463 545.687 347.136 554.479 348.903C563.77 360.5 594.101 383.296 641.097 381.706C635.003 383.694 619.937 387.338 608.428 386.013C624.613 391.314 653.026 402.58 637.201 405.231C622.095 407.351 618.319 410.091 618.319 411.195C612.124 410.753 596.739 408.677 584.75 403.905C583.651 407.219 578.876 413.051 568.565 409.87C569.564 414.508 573.84 424.449 582.952 427.099C592.063 429.75 601.534 436.819 605.131 440.022C607.229 439.249 616.58 439.757 637.201 447.974C644.893 449.52 662.857 451.354 673.167 446.317C683.477 441.281 673.067 452.171 666.573 458.246C664.975 459.681 658.421 462.553 644.993 462.553C641.097 464.21 632.106 467.589 627.31 467.854C629.308 472.162 634.863 480.18 641.097 477.795L660.279 486.741C667.173 487.956 682.039 489.392 686.355 485.416C684.756 491.159 678.682 502.778 667.173 503.308C655.663 503.838 647.991 503.971 645.593 503.971L629.408 501.983C620.317 497.565 602.074 489.524 601.834 492.705L625.512 507.284C616.62 509.714 595.78 513.116 583.551 507.284C596.939 517.887 630.847 538.165 659.38 534.454C651.687 537.657 631.746 543.201 613.523 539.756C628.109 548.812 660.459 566.13 673.167 562.949C668.571 558.973 659.38 550.822 659.38 550.027C659.38 549.232 677.363 554.555 686.355 557.317C690.051 557.427 697.624 556.124 698.343 550.027L688.752 549.033C686.854 546.493 681.619 541.744 675.864 543.069C672.468 539.203 668.551 531.406 680.06 531.141C675.864 527.717 667.652 520.14 668.371 517.224C672.268 520.538 683.178 526.701 695.646 524.845C700.042 521.974 706.915 516.429 699.242 517.224C693.548 517.777 680.6 516.76 674.366 508.278L681.559 510.598C681.159 507.726 682.159 502.513 689.352 504.633C689.951 503.529 692.409 501.519 697.444 502.314C697.844 500.768 699.962 497.543 705.237 497.012C710.512 496.482 709.633 493.478 708.534 492.042H696.845C692.649 489.171 686.774 483.427 696.845 483.427L711.231 474.15C705.437 474.26 693.847 474.084 693.847 472.493L700.441 470.836V469.842C696.445 469.18 688.393 465.933 688.153 458.246L692.349 462.553C692.249 461.228 692.948 458.511 696.545 458.246C700.142 457.98 702.639 457.914 703.438 457.914C704.238 456.699 706.855 454.336 710.931 454.601C711.431 453.275 711.951 450.956 710.032 452.281C707.635 451.508 704.098 448.305 709.133 441.678C709.233 439.469 708.893 434.588 706.735 432.732L709.733 428.093L711.231 419.479C713.229 415.834 716.146 408.345 711.831 407.55V402.249C712.53 400.813 714.288 398.803 715.727 402.249C716.983 405.256 717.264 406.8 717.249 407.364C717.377 406.654 717.753 408.507 718.424 421.135C719.723 421.908 722.381 424.051 722.62 426.437V448.305C723.719 446.759 726.936 443.401 731.013 442.341C729.714 445.986 725.738 453.739 720.223 455.595C719.623 456.037 718.784 457.053 720.223 457.583L727.716 463.547C733.81 464.32 743.181 467.921 731.912 476.138L727.716 479.12C730.013 480.887 735.628 484.488 739.704 484.753C743.781 485.018 750.794 482.213 753.791 480.777C754.291 483.759 753.372 490.717 745.699 494.693C747.413 495.092 750.872 495.635 752.232 494.955C752.358 494.866 752.478 494.778 752.592 494.693C752.499 494.796 752.378 494.882 752.232 494.955C748.608 497.531 740.158 501.713 732.511 499.663C735.308 503.308 741.802 510.266 745.399 508.941C749.795 508.499 756.968 509.603 750.494 517.556C748.496 518.991 742.462 521.2 734.309 518.55L731.013 522.526C732.012 525.066 734.849 529.948 738.206 529.153C741.563 528.357 746.598 530.367 748.696 531.472C752.093 532.245 760.685 532.267 767.878 526.171C766.379 528.711 762.723 533.659 760.085 533.129C757.448 532.599 759.985 535.117 761.584 536.442C763.682 537.768 765.78 541.611 757.388 546.382C746.898 552.347 742.402 544.726 740.004 548.702C737.606 552.678 750.194 557.317 752.592 553.672C752.193 555.77 749.955 559.636 744.2 558.311L739.704 557.648C733.51 557.096 725.018 557.184 740.604 561.955C746.498 561.955 759.486 561.227 764.281 558.311C764.481 560.078 763.922 564.54 760.085 568.251C759.386 571.343 756.728 577.33 751.693 576.534C755.989 578.633 766.02 579.45 771.774 565.932C770.176 565.6 767.159 564.275 767.878 561.624C769.676 562.949 774.052 563.678 777.169 555.991H775.671C773.073 556.764 767.159 557.847 764.281 555.991C766.08 556.212 770.156 556.058 772.074 553.672C766.879 553.561 756.309 552.346 755.589 548.37C763.582 548.15 780.646 543.665 784.962 527.496C782.164 529.926 775.91 534.189 773.273 531.803C775.87 529.705 781.185 525.11 781.665 523.52L781.965 521.863H774.771C771.974 521.2 768.238 519.146 775.671 516.23C776.07 514.242 777.948 510.399 782.264 510.929C783.663 510.598 786.4 509.405 786.161 507.284V502.645L784.962 502.314C783.663 503.529 780.766 505.296 779.567 502.645C774.871 500.215 768.118 495.091 778.668 494.03L783.463 491.38C781.965 489.833 780.766 486.144 787.959 483.759V482.102C786.56 481.329 784.602 478.325 787.959 472.493C788.359 471.72 788.978 468.451 788.259 461.559C788.359 460.234 788.798 457.119 789.757 455.263L790.057 445.323L790.656 440.353L790.956 436.377L791.855 441.016L792.155 446.649L792.455 451.287V456.257C792.355 458.798 793.414 464.408 798.449 466.529C799.148 466.971 799.768 468.119 796.651 469.18V473.487C798.749 476.359 801.866 482.367 797.55 483.427C797.55 484.09 797.73 485.416 798.449 485.416C797.95 489.171 798.149 496.35 802.945 495.024C807.74 493.699 808.54 497.123 808.34 499.001C808.34 499.332 807.081 500.724 802.046 503.639C801.846 504.192 801.686 505.296 802.645 505.296C805.343 508.72 811.517 514.839 814.634 511.923C816.133 511.481 818.95 511.061 818.231 512.917C817.511 514.772 814.734 516.783 813.435 517.556L811.936 518.881C813.735 519.544 817.151 521.002 816.432 521.532C815.713 522.062 813.335 522.636 812.236 522.857C809.039 522.636 802.645 522.062 802.645 521.532C802.645 521.002 801.846 521.753 801.446 522.194C801.646 530.036 807.98 545.72 831.718 545.72C828.221 546.161 820.988 546.979 820.029 546.714C818.83 546.382 826.023 558.311 843.407 549.696C841.908 552.457 837.472 557.979 831.718 557.979C834.016 558.421 838.791 559.504 839.51 560.299C833.716 562.729 820.568 566.329 814.334 561.293C820.628 569.576 834.116 583.824 837.712 574.546C839.111 570.681 841.429 566.859 839.51 582.499C839.011 584.928 834.655 589.921 821.228 590.451C826.123 591.555 835.554 594.692 834.116 598.403C841.009 599.397 856.355 602.644 862.589 607.681L957 608.012V612.5L0.331677 610.001Z" fill="white"/>
</svg>
